<svg width="1440px" height="900px" viewBox="0 0 1440 900" version="1.1" xmlns="http://www.w3.org/2000/svg" xmlns:xlink="http://www.w3.org/1999/xlink">
    <g id="purple-bg-copy-2" stroke="none" stroke-width="1" fill="none" fill-rule="evenodd" fill-opacity="0.10">
        <path d="M364.117374,80.5537025 L1684.40594,337.191801 C1708.26,341.828561 1723.8387,364.924933 1719.20194,388.778993 L1572.46982,1143.6503 C1567.83306,1167.50436 1544.73669,1183.08306 1520.88263,1178.4463 L200.594065,921.808199 C176.740005,917.171439 161.161305,894.075067 165.798064,870.221007 L312.530182,115.349703 C317.166941,91.4956429 340.263314,75.916943 364.117374,80.5537025 Z" id="Rectangle" fill="#66BFBF"></path>
        <path d="M73.1173737,-265.446297 L1393.40594,-8.80819872 C1417.26,-4.17143919 1432.8387,18.9249333 1428.20194,42.7789932 L1281.46982,797.650297 C1276.83306,821.504357 1253.73669,837.083057 1229.88263,832.446297 C1084.09629,797.302412 1005.56641,782.860677 994.292969,789.121094 C977.382812,798.511719 915.679688,978.847656 882.199219,972.3125 C848.71875,965.777344 704.546101,726.135486 667.375,718.910156 C495.230911,685.448735 242.637266,637.748082 -90.4059354,575.808199 C-114.259995,571.171439 -129.838695,548.075067 -125.201936,524.221007 L21.5301818,-230.650297 C26.1669413,-254.504357 49.2633138,-270.083057 73.1173737,-265.446297 Z" id="Rectangle-Copy" fill="#66BFBF"></path>
    </g>
</svg>